<?xml version="1.0" encoding="UTF-8" standalone="no"?>
<!-- Created with Inkscape (http://www.inkscape.org/) -->

<svg
   xmlns:dc="http://purl.org/dc/elements/1.1/"
   xmlns:cc="http://creativecommons.org/ns#"
   xmlns:rdf="http://www.w3.org/1999/02/22-rdf-syntax-ns#"
   xmlns:svg="http://www.w3.org/2000/svg"
   xmlns="http://www.w3.org/2000/svg"
   xmlns:sodipodi="http://sodipodi.sourceforge.net/DTD/sodipodi-0.dtd"
   xmlns:inkscape="http://www.inkscape.org/namespaces/inkscape"
   width="210.91064mm"
   height="210.91064mm"
   viewBox="0 0 210.91064 210.91064"
   version="1.1"
   id="svg8"
   sodipodi:docname="disk.svg"
   inkscape:version="0.92.3 (2405546, 2018-03-11)">
  <defs
     id="defs2" />
  <sodipodi:namedview
     id="base"
     pagecolor="#ffffff"
     bordercolor="#666666"
     borderopacity="1.0"
     inkscape:pageopacity="0.0"
     inkscape:pageshadow="2"
     inkscape:zoom="0.35"
     inkscape:cx="400"
     inkscape:cy="234.28499"
     inkscape:document-units="mm"
     inkscape:current-layer="layer1"
     showgrid="false"
     inkscape:window-width="1366"
     inkscape:window-height="705"
     inkscape:window-x="-8"
     inkscape:window-y="-8"
     inkscape:window-maximized="1"
     fit-margin-top="0"
     fit-margin-left="0"
     fit-margin-right="0"
     fit-margin-bottom="0" />
  <metadata
     id="metadata5">
    <rdf:RDF>
      <cc:Work
         rdf:about="">
        <dc:format>image/svg+xml</dc:format>
        <dc:type
           rdf:resource="http://purl.org/dc/dcmitype/StillImage" />
        <dc:title></dc:title>
      </cc:Work>
    </rdf:RDF>
  </metadata>
  <g
     inkscape:label="Layer 1"
     inkscape:groupmode="layer"
     id="layer1"
     transform="translate(0,0.08940023)">
    <path
       style="stroke-width:0.87187493"
       d="M 398.57227,-0.33789062 A 398.57141,398.57141 0 0 0 0,398.23438 398.57141,398.57141 0 0 0 398.57227,796.80469 398.57141,398.57141 0 0 0 797.14258,398.23438 398.57141,398.57141 0 0 0 398.57227,-0.33789062 Z m 0,374.28711062 a 24.285698,24.285698 0 0 1 24.28515,24.28516 24.285698,24.285698 0 0 1 -24.28515,24.28515 24.285698,24.285698 0 0 1 -24.28711,-24.28515 24.285698,24.285698 0 0 1 24.28711,-24.28516 z"
       transform="scale(0.26458333)"
       id="path12"
       inkscape:connector-curvature="0" />
  </g>
</svg>
